<?xml version="1.0" encoding="UTF-8"?>
<svg width="184px" height="53px" viewBox="0 0 184 53" version="1.1" xmlns="http://www.w3.org/2000/svg" xmlns:xlink="http://www.w3.org/1999/xlink">
    <!-- Generator: Sketch 51 (57462) - http://www.bohemiancoding.com/sketch -->
    <title>appstore</title>
    <desc>Created with Sketch.</desc>
    <defs></defs>
    <g id="Page-1" stroke="none" stroke-width="1" fill="none" fill-rule="evenodd">
        <g id="Expanded-Navbar" transform="translate(-352.000000, -533.000000)" fill-rule="nonzero">
            <g id="navbar" transform="translate(55.000000, 0.000000)">
                <g id="logo-and-text" transform="translate(0.000000, 31.000000)">
                    <g id="Layer_1">
                        <g id="Title" transform="translate(55.000000, 263.000000)">
                            <g id="buttons" transform="translate(0.000000, 236.000000)">
                                <g id="appstore" transform="translate(241.000000, 2.000000)">
                                    <path d="M179.382533,55.1111111 L6.51551111,55.1111111 C2.92364444,55.1111111 0,52.1792 0,48.5900889 L0,6.51137778 C0,2.92088889 2.92364444,0 6.51551111,0 L179.382533,0 C182.973022,0 186,2.92088889 186,6.51137778 L186,48.5900889 C186,52.1792 182.973022,55.1111111 179.382533,55.1111111 Z" id="Shape"></path>
                                    <path d="M184.666311,48.5914667 C184.666311,51.5068444 182.3048,53.8683556 179.383911,53.8683556 L6.51551111,53.8683556 C3.596,53.8683556 1.22622222,51.5068444 1.22622222,48.5914667 L1.22622222,6.51 C1.22622222,3.596 3.596,1.22622222 6.51551111,1.22622222 L179.382533,1.22622222 C182.3048,1.22622222 184.664933,3.596 184.664933,6.51 L184.666311,48.5914667 Z" id="Shape" fill="#FFFFFF"></path>
                                    <g id="Group" transform="translate(17.533333, 8.266667)" fill="#0B203C">
                                        <path d="M23.9763556,18.9912889 C23.9364,14.5507111 27.6123111,12.3903556 27.7804,12.2897778 C25.6985778,9.25453333 22.4718222,8.83982222 21.3379111,8.80675556 C18.6278222,8.52155556 15.9990222,10.4284 14.6184889,10.4284 C13.2104,10.4284 11.0844889,8.83431111 8.79324444,8.88115556 C5.8448,8.92662222 3.08648889,10.6336889 1.57368889,13.2845333 C-1.54835556,18.6895556 0.780088889,26.6324444 3.77124444,31.0013778 C5.26751111,33.1410667 7.01591111,35.5301333 9.3044,35.4460889 C11.5432889,35.3537778 12.3796,34.0187111 15.0814222,34.0187111 C17.7584444,34.0187111 18.5437778,35.4460889 20.8777333,35.3923556 C23.2805778,35.3537778 24.7933778,33.2430222 26.2372889,31.0840444 C27.9664,28.6316 28.6608,26.2163556 28.6883556,26.0923556 C28.6318667,26.0730667 24.0218222,24.3136444 23.9763556,18.9912889 Z" id="Shape"></path>
                                        <path d="M19.5674667,5.93271111 C20.7716444,4.4268 21.5955556,2.37804444 21.3668444,0.298977778 C19.6239556,0.376133333 17.4443111,1.50453333 16.1891556,2.97737778 C15.0786667,4.27524444 14.0866667,6.40253333 14.3429333,8.40306667 C16.3007556,8.54911111 18.3109333,7.4152 19.5674667,5.93271111 Z" id="Shape"></path>
                                    </g>
                                    <g id="Group" transform="translate(57.866667, 24.800000)" fill="#717171">
                                        <path d="M16.0442222,18.6055111 L12.9152889,18.6055111 L11.2013333,13.2197778 L5.24382222,13.2197778 L3.61115556,18.6055111 L0.564888889,18.6055111 L6.46728889,0.270044444 L10.1128889,0.270044444 L16.0442222,18.6055111 Z M10.6846667,10.9602222 L9.13466667,6.17244444 C8.97071111,5.68333333 8.66346667,4.53151111 8.21017778,2.71835556 L8.15506667,2.71835556 C7.97457778,3.49817778 7.68386667,4.65 7.28431111,6.17244444 L5.76186667,10.9602222 L10.6846667,10.9602222 Z" id="Shape"></path>
                                        <path d="M31.2232,11.8323556 C31.2232,14.0808889 30.6156,15.8582222 29.4004,17.1629778 C28.3119556,18.3244444 26.9603556,18.9044889 25.3469778,18.9044889 C23.6054667,18.9044889 22.3544444,18.2789778 21.5925333,17.0279556 L21.5374222,17.0279556 L21.5374222,23.9926222 L18.6,23.9926222 L18.6,9.73675556 C18.6,8.32315556 18.5628,6.87235556 18.4911556,5.38435556 L21.0744889,5.38435556 L21.2384444,7.47995556 L21.2935556,7.47995556 C22.2731556,5.90102222 23.7597778,5.11293333 25.7548,5.11293333 C27.3144444,5.11293333 28.6164444,5.7288 29.6580444,6.96191111 C30.7024,8.1964 31.2232,9.81942222 31.2232,11.8323556 Z M28.2306667,11.9398222 C28.2306667,10.6529778 27.9413333,9.59208889 27.3599111,8.75715556 C26.7247556,7.8864 25.8719111,7.45102222 24.8027556,7.45102222 C24.0780444,7.45102222 23.4194667,7.69351111 22.8311556,8.1716 C22.2414667,8.65382222 21.8556889,9.28346667 21.6752,10.0632889 C21.5842667,10.4270222 21.5388,10.7246222 21.5388,10.9588444 L21.5388,13.1632889 C21.5388,14.1249778 21.8336444,14.9364889 22.4233333,15.5992 C23.0130222,16.2619111 23.7790667,16.5925778 24.7214667,16.5925778 C25.8278222,16.5925778 26.6889333,16.1654667 27.3048,15.314 C27.9220444,14.4611556 28.2306667,13.3368889 28.2306667,11.9398222 Z" id="Shape"></path>
                                        <path d="M46.4297333,11.8323556 C46.4297333,14.0808889 45.8221333,15.8582222 44.6055556,17.1629778 C43.5184889,18.3244444 42.1668889,18.9044889 40.5535111,18.9044889 C38.812,18.9044889 37.5609778,18.2789778 36.8004444,17.0279556 L36.7453333,17.0279556 L36.7453333,23.9926222 L33.8079111,23.9926222 L33.8079111,9.73675556 C33.8079111,8.32315556 33.7707111,6.87235556 33.6990667,5.38435556 L36.2824,5.38435556 L36.4463556,7.47995556 L36.5014667,7.47995556 C37.4796889,5.90102222 38.9663111,5.11293333 40.9627111,5.11293333 C42.5209778,5.11293333 43.8229778,5.7288 44.8673333,6.96191111 C45.9075556,8.1964 46.4297333,9.81942222 46.4297333,11.8323556 Z M43.4372,11.9398222 C43.4372,10.6529778 43.1464889,9.59208889 42.5650667,8.75715556 C41.9299111,7.8864 41.0798222,7.45102222 40.0092889,7.45102222 C39.2832,7.45102222 38.626,7.69351111 38.0363111,8.1716 C37.4466222,8.65382222 37.0622222,9.28346667 36.8817333,10.0632889 C36.7921778,10.4270222 36.7453333,10.7246222 36.7453333,10.9588444 L36.7453333,13.1632889 C36.7453333,14.1249778 37.0401778,14.9364889 37.6271111,15.5992 C38.2168,16.2605333 38.9828444,16.5925778 39.928,16.5925778 C41.0343556,16.5925778 41.8954667,16.1654667 42.5113333,15.314 C43.1285778,14.4611556 43.4372,13.3368889 43.4372,11.9398222 Z" id="Shape"></path>
                                        <path d="M63.4315111,13.4636444 C63.4315111,15.0232889 62.8900444,16.2922222 61.8029778,17.2718222 C60.6084444,18.3423556 58.9454667,18.8769333 56.8085333,18.8769333 C54.8355556,18.8769333 53.2538667,18.4966667 52.0565778,17.7347556 L52.7372,15.2864444 C54.0268,16.0662667 55.4417778,16.4575556 56.9835111,16.4575556 C58.0898667,16.4575556 58.9509778,16.2068 59.5696,15.7080444 C60.1854667,15.2092889 60.4927111,14.5396889 60.4927111,13.7047556 C60.4927111,12.9607556 60.2392,12.3338667 59.7308,11.8254667 C59.2251556,11.3170667 58.3805778,10.8444889 57.2012,10.4077333 C53.9909778,9.21044444 52.3872444,7.45653333 52.3872444,5.15013333 C52.3872444,3.64284444 52.9493778,2.40697778 54.0750222,1.44528889 C55.1965333,0.482222222 56.6928,0.00137777778 58.5638222,0.00137777778 C60.2323111,0.00137777778 61.6183556,0.292088889 62.7247111,0.872133333 L61.9903556,3.26671111 C60.9570222,2.70457778 59.7886667,2.42351111 58.4811556,2.42351111 C57.4478222,2.42351111 56.6404444,2.6784 56.0617778,3.18542222 C55.5726667,3.63871111 55.3274222,4.1912 55.3274222,4.84564444 C55.3274222,5.57035556 55.6071111,6.16968889 56.1692444,6.64088889 C56.6583556,7.07626667 57.5470222,7.54746667 58.8366222,8.05586667 C60.4141778,8.69102222 61.5728889,9.43364444 62.3182667,10.2851111 C63.0608889,11.1338222 63.4315111,12.1960889 63.4315111,13.4636444 Z" id="Shape"></path>
                                        <path d="M73.1434667,7.5888 L69.9056889,7.5888 L69.9056889,14.0078667 C69.9056889,15.6405333 70.4760889,16.4561778 71.6196444,16.4561778 C72.1445778,16.4561778 72.5799556,16.4107111 72.9244,16.3197778 L73.0056889,18.5504 C72.4270222,18.7667111 71.6651111,18.8755556 70.7213333,18.8755556 C69.5612444,18.8755556 68.6546667,18.5214667 68.0002222,17.8146667 C67.3485333,17.1064889 67.0206222,15.9188444 67.0206222,14.2503556 L67.0206222,7.58604444 L65.0917333,7.58604444 L65.0917333,5.3816 L67.0206222,5.3816 L67.0206222,2.96084444 L69.9056889,2.09008889 L69.9056889,5.3816 L73.1434667,5.3816 L73.1434667,7.5888 Z" id="Shape"></path>
                                        <path d="M87.7520444,11.8860889 C87.7520444,13.9183111 87.1706222,15.5868 86.0105333,16.8915556 C84.7939556,18.2348889 83.1792,18.9044889 81.1662667,18.9044889 C79.2263556,18.9044889 77.6818667,18.2610667 76.5300444,16.9742222 C75.3782222,15.6873778 74.8023111,14.0629778 74.8023111,12.1051556 C74.8023111,10.0564 75.3947556,8.37826667 76.5837778,7.07351111 C77.7700444,5.76737778 79.3710222,5.11431111 81.3839556,5.11431111 C83.3238667,5.11431111 84.8848889,5.75773333 86.0628889,7.04595556 C87.1899111,8.2956 87.7520444,9.90897778 87.7520444,11.8860889 Z M84.7044,11.9811556 C84.7044,10.7618222 84.444,9.71608889 83.9163111,8.84395556 C83.3004444,7.78857778 82.4200444,7.26226667 81.2792444,7.26226667 C80.0984889,7.26226667 79.2015556,7.78995556 78.5856889,8.84395556 C78.058,9.71746667 77.7976,10.7797333 77.7976,12.0362667 C77.7976,13.2556 78.058,14.3013333 78.5856889,15.1720889 C79.2208444,16.2274667 80.1081333,16.7537778 81.2530667,16.7537778 C82.3745778,16.7537778 83.2549778,16.2164444 83.8901333,15.1445333 C84.4316,14.2558667 84.7044,13.1991111 84.7044,11.9811556 Z" id="Shape"></path>
                                        <path d="M97.3000444,7.96768889 C97.0093333,7.91395556 96.6993333,7.8864 96.3741778,7.8864 C95.3408444,7.8864 94.5417333,8.27631111 93.9796,9.05751111 C93.4904889,9.7464 93.2452444,10.6171556 93.2452444,11.6684 L93.2452444,18.6055111 L90.3092,18.6055111 L90.3367556,9.548 C90.3367556,8.02417778 90.2995556,6.63675556 90.2265333,5.38573333 L92.7850667,5.38573333 L92.8925333,7.91533333 L92.9738222,7.91533333 C93.2838222,7.04595556 93.7729333,6.34604444 94.4425333,5.82111111 C95.0969778,5.34853333 95.8037778,5.11293333 96.5656889,5.11293333 C96.8371111,5.11293333 97.0823556,5.13222222 97.3000444,5.16666667 L97.3000444,7.96768889 Z" id="Shape"></path>
                                        <path d="M110.437156,11.3694222 C110.437156,11.8957333 110.402711,12.3393778 110.329689,12.7017333 L101.517422,12.7017333 C101.551867,14.0078667 101.9776,15.0067556 102.796,15.6956444 C103.538622,16.3115111 104.498933,16.6201333 105.678311,16.6201333 C106.983067,16.6201333 108.173467,16.4120889 109.244,15.9946222 L109.704178,18.0337333 C108.453156,18.5793333 106.976178,18.8507556 105.271867,18.8507556 C103.221733,18.8507556 101.612489,18.2472889 100.441378,17.0417333 C99.2730222,15.8361778 98.6874667,14.2172889 98.6874667,12.1864444 C98.6874667,10.1928 99.2316889,8.53257778 100.321511,7.20853333 C101.462311,5.79493333 103.004044,5.08813333 104.943956,5.08813333 C106.849422,5.08813333 108.291956,5.79493333 109.271556,7.20853333 C110.047244,8.33142222 110.437156,9.72022222 110.437156,11.3694222 Z M107.636133,10.6075111 C107.655422,9.73675556 107.463911,8.98448889 107.065733,8.34933333 C106.557333,7.53231111 105.776133,7.12448889 104.724889,7.12448889 C103.764578,7.12448889 102.983378,7.52266667 102.3868,8.32177778 C101.897689,8.95693333 101.606978,9.71884444 101.517422,10.6061333 L107.636133,10.6061333 L107.636133,10.6075111 Z" id="Shape"></path>
                                    </g>
                                    <g id="Group" transform="translate(59.244444, 8.266667)" fill="#171717" fill-opacity="0.69995471">
                                        <path d="M8.33555556,5.52351111 C8.33555556,7.14515556 7.8492,8.36586667 6.87786667,9.18564444 C5.97817778,9.94204444 4.6996,10.3209333 3.04351111,10.3209333 C2.22235556,10.3209333 1.51968889,10.2851111 0.931377778,10.2134667 L0.931377778,1.35297778 C1.6988,1.22897778 2.52546667,1.1656 3.41826667,1.1656 C4.99582222,1.1656 6.18484444,1.50866667 6.98671111,2.1948 C7.88502222,2.97048889 8.33555556,4.0796 8.33555556,5.52351111 Z M6.81311111,5.56346667 C6.81311111,4.51222222 6.5348,3.70622222 5.97817778,3.14408889 C5.42155556,2.58333333 4.60866667,2.30226667 3.53813333,2.30226667 C3.08346667,2.30226667 2.69631111,2.33257778 2.37528889,2.39595556 L2.37528889,9.13191111 C2.55302222,9.15946667 2.87817778,9.17186667 3.35075556,9.17186667 C4.45573333,9.17186667 5.30857778,8.86462222 5.90928889,8.25013333 C6.51,7.63564444 6.81311111,6.74008889 6.81311111,5.56346667 Z" id="Shape"></path>
                                        <path d="M16.4079556,6.93986667 C16.4079556,7.93875556 16.1227556,8.75715556 15.5523556,9.3992 C14.9544,10.0591556 14.1621778,10.3884444 13.1729333,10.3884444 C12.2195111,10.3884444 11.4603556,10.0729333 10.8940889,9.43915556 C10.3292,8.80675556 10.0467556,8.00902222 10.0467556,7.04733333 C10.0467556,6.04155556 10.3374667,5.21626667 10.9216444,4.5756 C11.5058222,3.93493333 12.2911556,3.61391111 13.2804,3.61391111 C14.2338222,3.61391111 14.9998667,3.92942222 15.5799111,4.56182222 C16.1310222,5.17631111 16.4079556,5.96991111 16.4079556,6.93986667 Z M14.9103111,6.98671111 C14.9103111,6.38737778 14.7808,5.87346667 14.5231556,5.44497778 C14.2200444,4.92693333 13.7888,4.66791111 13.2280444,4.66791111 C12.648,4.66791111 12.2071111,4.92693333 11.904,5.44497778 C11.6449778,5.87346667 11.5168444,6.39564444 11.5168444,7.01288889 C11.5168444,7.61222222 11.6463556,8.12613333 11.904,8.55462222 C12.2167556,9.07266667 12.6521333,9.33168889 13.2142667,9.33168889 C13.7653778,9.33168889 14.198,9.06853333 14.5093778,8.54084444 C14.7766667,8.10408889 14.9103111,7.58604444 14.9103111,6.98671111 Z" id="Shape"></path>
                                        <path d="M27.2317778,3.74617778 L25.1995556,10.2410222 L23.8768889,10.2410222 L23.0350667,7.42071111 C22.8215111,6.71666667 22.6479111,6.01675556 22.5128889,5.32235556 L22.4867111,5.32235556 C22.3613333,6.03604444 22.1877333,6.73457778 21.9645333,7.42071111 L21.0703556,10.2410222 L19.7325333,10.2410222 L17.8215556,3.74617778 L19.3054222,3.74617778 L20.0397778,6.83377778 C20.2175111,7.564 20.3635556,8.25977778 20.4806667,8.91835556 L20.5068444,8.91835556 C20.6143111,8.37551111 20.7920444,7.68386667 21.0428,6.84755556 L21.9645333,3.74755556 L23.1411556,3.74755556 L24.0243111,6.78142222 C24.2378667,7.52128889 24.4114667,8.2336 24.5451111,8.91973333 L24.5850667,8.91973333 C24.6828889,8.25151111 24.8303111,7.5392 25.0259556,6.78142222 L25.8140444,3.74755556 L27.2317778,3.74755556 L27.2317778,3.74617778 Z" id="Shape"></path>
                                        <path d="M34.7172444,10.2410222 L33.2733333,10.2410222 L33.2733333,6.52102222 C33.2733333,5.37471111 32.8379556,4.80155556 31.9644444,4.80155556 C31.5359556,4.80155556 31.1901333,4.95862222 30.9214667,5.27413333 C30.6555556,5.58964444 30.5205333,5.96164444 30.5205333,6.38737778 L30.5205333,10.2396444 L29.0766222,10.2396444 L29.0766222,5.60204444 C29.0766222,5.03164444 29.0587111,4.41302222 29.0242667,3.74342222 L30.2932,3.74342222 L30.3607111,4.75884444 L30.4006667,4.75884444 C30.5687556,4.44333333 30.8195111,4.18293333 31.1488,3.97488889 C31.5400889,3.7324 31.9782222,3.60977778 32.4576889,3.60977778 C33.0639111,3.60977778 33.5681778,3.80542222 33.9691111,4.19808889 C34.4678667,4.67893333 34.7172444,5.39675556 34.7172444,6.35017778 L34.7172444,10.2410222 Z" id="Shape"></path>
                                        <polygon id="Shape" points="38.6990222 10.2410222 37.2564889 10.2410222 37.2564889 0.766044444 38.6990222 0.766044444"></polygon>
                                        <path d="M47.1999111,6.93986667 C47.1999111,7.93875556 46.9147111,8.75715556 46.3443111,9.3992 C45.7463556,10.0591556 44.9527556,10.3884444 43.9648889,10.3884444 C43.0100889,10.3884444 42.2509333,10.0729333 41.6860444,9.43915556 C41.1211556,8.80675556 40.8387111,8.00902222 40.8387111,7.04733333 C40.8387111,6.04155556 41.1294222,5.21626667 41.7136,4.5756 C42.2977778,3.93493333 43.0831111,3.61391111 44.0709778,3.61391111 C45.0257778,3.61391111 45.7904444,3.92942222 46.3718667,4.56182222 C46.9229778,5.17631111 47.1999111,5.96991111 47.1999111,6.93986667 Z M45.7008889,6.98671111 C45.7008889,6.38737778 45.5713778,5.87346667 45.3137333,5.44497778 C45.012,4.92693333 44.5793778,4.66791111 44.02,4.66791111 C43.4385778,4.66791111 42.9976889,4.92693333 42.6959556,5.44497778 C42.4369333,5.87346667 42.3088,6.39564444 42.3088,7.01288889 C42.3088,7.61222222 42.4383111,8.12613333 42.6959556,8.55462222 C43.0087111,9.07266667 43.4440889,9.33168889 44.0062222,9.33168889 C44.5573333,9.33168889 44.9885778,9.06853333 45.2999556,8.54084444 C45.5686222,8.10408889 45.7008889,7.58604444 45.7008889,6.98671111 Z" id="Shape"></path>
                                        <path d="M54.188,10.2410222 L52.8915111,10.2410222 L52.7840444,9.49288889 L52.7440889,9.49288889 C52.3004444,10.0894667 51.6680444,10.3884444 50.8468889,10.3884444 C50.2337778,10.3884444 49.7377778,10.1914222 49.3644,9.80013333 C49.0254667,9.44466667 48.856,9.0024 48.856,8.47746667 C48.856,7.68386667 49.1866667,7.07902222 49.8521333,6.66017778 C50.5162222,6.24133333 51.4503556,6.03604444 52.6531556,6.04568889 L52.6531556,5.92444444 C52.6531556,5.06884444 52.204,4.64173333 51.3043111,4.64173333 C50.6636444,4.64173333 50.0987556,4.80293333 49.6110222,5.12257778 L49.3175556,4.17466667 C49.9210222,3.80128889 50.6664,3.61391111 51.5454222,3.61391111 C53.2428444,3.61391111 54.0943111,4.50946667 54.0943111,6.30057778 L54.0943111,8.6924 C54.0943111,9.34133333 54.126,9.858 54.188,10.2410222 Z M52.6889778,8.00902222 L52.6889778,7.00737778 C51.0962667,6.97982222 50.2999111,7.41657778 50.2999111,8.31626667 C50.2999111,8.6552 50.3908444,8.90871111 50.5768444,9.07817778 C50.7628444,9.24764444 50.9998222,9.33168889 51.2822667,9.33168889 C51.5991556,9.33168889 51.8953778,9.23111111 52.1654222,9.03133333 C52.4368444,8.83017778 52.6035556,8.57528889 52.6655556,8.26253333 C52.6807111,8.19226667 52.6889778,8.10684444 52.6889778,8.00902222 Z" id="Shape"></path>
                                        <path d="M62.3926667,10.2410222 L61.1113333,10.2410222 L61.0438222,9.19804444 L61.0038667,9.19804444 C60.5946667,9.99164444 59.8975111,10.3884444 58.9179111,10.3884444 C58.1353333,10.3884444 57.4836444,10.0812 56.9669778,9.46671111 C56.4503111,8.85222222 56.1926667,8.05448889 56.1926667,7.07488889 C56.1926667,6.02364444 56.4723556,5.17217778 57.0344889,4.52186667 C57.5787111,3.91564444 58.2455556,3.61253333 59.0391556,3.61253333 C59.9112889,3.61253333 60.5216444,3.906 60.8688444,4.49431111 L60.8964,4.49431111 L60.8964,0.766044444 L62.3416889,0.766044444 L62.3416889,8.49124444 C62.3416889,9.12364444 62.3582222,9.70644444 62.3926667,10.2410222 Z M60.8964,7.502 L60.8964,6.41906667 C60.8964,6.23168889 60.8826222,6.08013333 60.8564444,5.9644 C60.7751556,5.6172 60.6001778,5.32511111 60.3342667,5.08951111 C60.0656,4.85391111 59.7418222,4.73542222 59.3684444,4.73542222 C58.8297333,4.73542222 58.4081333,4.94897778 58.0981333,5.37746667 C57.7908889,5.80595556 57.6352,6.35293333 57.6352,7.02115556 C57.6352,7.6632 57.7826222,8.184 58.0788444,8.58493333 C58.3916,9.01204444 58.8132,9.2256 59.3408889,9.2256 C59.8148444,9.2256 60.1937333,9.04786667 60.4816889,8.69102222 C60.76,8.36173333 60.8964,7.96493333 60.8964,7.502 Z" id="Shape"></path>
                                        <path d="M74.7416889,6.93986667 C74.7416889,7.93875556 74.4564889,8.75715556 73.8860889,9.3992 C73.2881333,10.0591556 72.4972889,10.3884444 71.5066667,10.3884444 C70.5546222,10.3884444 69.7954667,10.0729333 69.2278222,9.43915556 C68.6629333,8.80675556 68.3804889,8.00902222 68.3804889,7.04733333 C68.3804889,6.04155556 68.6712,5.21626667 69.2553778,4.5756 C69.8395556,3.93493333 70.6248889,3.61391111 71.6155111,3.61391111 C72.5675556,3.61391111 73.3349778,3.92942222 73.9136444,4.56182222 C74.4647556,5.17631111 74.7416889,5.96991111 74.7416889,6.93986667 Z M73.2454222,6.98671111 C73.2454222,6.38737778 73.1159111,5.87346667 72.8582667,5.44497778 C72.5537778,4.92693333 72.1239111,4.66791111 71.5617778,4.66791111 C70.9831111,4.66791111 70.5422222,4.92693333 70.2377333,5.44497778 C69.9787111,5.87346667 69.8505778,6.39564444 69.8505778,7.01288889 C69.8505778,7.61222222 69.9800889,8.12613333 70.2377333,8.55462222 C70.5504889,9.07266667 70.9858667,9.33168889 71.548,9.33168889 C72.0991111,9.33168889 72.5331111,9.06853333 72.8444889,8.54084444 C73.1104,8.10408889 73.2454222,7.58604444 73.2454222,6.98671111 Z" id="Shape"></path>
                                        <path d="M82.5054667,10.2410222 L81.0629333,10.2410222 L81.0629333,6.52102222 C81.0629333,5.37471111 80.6275556,4.80155556 79.7526667,4.80155556 C79.3241778,4.80155556 78.9783556,4.95862222 78.7110667,5.27413333 C78.4437778,5.58964444 78.3101333,5.96164444 78.3101333,6.38737778 L78.3101333,10.2396444 L76.8648444,10.2396444 L76.8648444,5.60204444 C76.8648444,5.03164444 76.8483111,4.41302222 76.8138667,3.74342222 L78.0814222,3.74342222 L78.1489333,4.75884444 L78.1888889,4.75884444 C78.3583556,4.44333333 78.6091111,4.18293333 78.9370222,3.97488889 C79.3296889,3.7324 79.7664444,3.60977778 80.2472889,3.60977778 C80.8521333,3.60977778 81.3564,3.80542222 81.7573333,4.19808889 C82.2574667,4.67893333 82.5054667,5.39675556 82.5054667,6.35017778 L82.5054667,10.2410222 Z" id="Shape"></path>
                                        <path d="M92.2229333,4.82773333 L90.6329778,4.82773333 L90.6329778,7.98284444 C90.6329778,8.78471111 90.9154222,9.18564444 91.4748,9.18564444 C91.7338222,9.18564444 91.9487556,9.1636 92.1182222,9.11813333 L92.1554222,10.2134667 C91.8702222,10.3209333 91.4954667,10.3746667 91.0339111,10.3746667 C90.4635111,10.3746667 90.0198667,10.2010667 89.6988444,9.85386667 C89.3764444,9.50666667 89.2166222,8.92248889 89.2166222,8.10271111 L89.2166222,4.82773333 L88.2673333,4.82773333 L88.2673333,3.74617778 L89.2166222,3.74617778 L89.2166222,2.55577778 L90.6316,2.12866667 L90.6316,3.7448 L92.2215556,3.7448 L92.2215556,4.82773333 L92.2229333,4.82773333 Z" id="Shape"></path>
                                        <path d="M99.8668444,10.2410222 L98.4215556,10.2410222 L98.4215556,6.54857778 C98.4215556,5.38435556 97.9861778,4.80155556 97.1140444,4.80155556 C96.4444444,4.80155556 95.9870222,5.13911111 95.7362667,5.81422222 C95.6935556,5.95613333 95.6687556,6.12973333 95.6687556,6.33364444 L95.6687556,10.2396444 L94.2262222,10.2396444 L94.2262222,0.766044444 L95.6687556,0.766044444 L95.6687556,4.68031111 L95.6963111,4.68031111 C96.1509778,3.968 96.8026667,3.61253333 97.6472444,3.61253333 C98.2452,3.61253333 98.7398222,3.80817778 99.1324889,4.20084444 C99.6216,4.68995556 99.8668444,5.41742222 99.8668444,6.37911111 L99.8668444,10.2410222 Z" id="Shape"></path>
                                        <path d="M107.751867,6.68635556 C107.751867,6.94537778 107.732578,7.16306667 107.698133,7.3408 L103.367778,7.3408 C103.387067,7.98284444 103.593733,8.47195556 103.994667,8.81088889 C104.361156,9.114 104.833733,9.26555556 105.4124,9.26555556 C106.053067,9.26555556 106.637244,9.1636 107.163556,8.95831111 L107.389511,9.96133333 C106.773644,10.2286222 106.048933,10.3622667 105.209867,10.3622667 C104.204089,10.3622667 103.411867,10.0660444 102.838711,9.4736 C102.2628,8.88115556 101.9776,8.08617778 101.9776,7.08866667 C101.9776,6.10906667 102.243511,5.29342222 102.779467,4.64311111 C103.338844,3.94871111 104.095244,3.60151111 105.050044,3.60151111 C105.984178,3.60151111 106.693733,3.94871111 107.1732,4.64311111 C107.560356,5.19422222 107.751867,5.87622222 107.751867,6.68635556 Z M106.374089,6.31297778 C106.385111,5.88448889 106.290044,5.51524444 106.0944,5.20386667 C105.843644,4.80293333 105.462,4.60177778 104.945333,4.60177778 C104.474133,4.60177778 104.089733,4.79742222 103.796267,5.19008889 C103.556533,5.50284444 103.414622,5.87622222 103.367778,6.31297778 L106.374089,6.31297778 Z" id="Shape"></path>
                                    </g>
                                </g>
                            </g>
                        </g>
                    </g>
                </g>
            </g>
        </g>
    </g>
</svg>