<?xml version="1.0" encoding="UTF-8"?>
<svg width="186px" height="55px" viewBox="0 0 186 55" version="1.1" xmlns="http://www.w3.org/2000/svg" xmlns:xlink="http://www.w3.org/1999/xlink">
    <!-- Generator: Sketch 51 (57462) - http://www.bohemiancoding.com/sketch -->
    <title>google-play-badge</title>
    <desc>Created with Sketch.</desc>
    <defs>
        <linearGradient x1="90.7692308%" y1="4.84%" x2="-38.3307692%" y2="71.968%" id="linearGradient-1">
            <stop stop-color="#00A0FF" offset="0%"></stop>
            <stop stop-color="#00A1FF" offset="0.7%"></stop>
            <stop stop-color="#00BEFF" offset="26%"></stop>
            <stop stop-color="#00D2FF" offset="51.2%"></stop>
            <stop stop-color="#00DFFF" offset="76%"></stop>
            <stop stop-color="#00E3FF" offset="100%"></stop>
        </linearGradient>
        <linearGradient x1="107.724138%" y1="49.4235294%" x2="-130.669951%" y2="49.4235294%" id="linearGradient-2">
            <stop stop-color="#FFE000" offset="0%"></stop>
            <stop stop-color="#FFBD00" offset="40.9%"></stop>
            <stop stop-color="#FFA500" offset="77.5%"></stop>
            <stop stop-color="#FF9C00" offset="100%"></stop>
        </linearGradient>
        <linearGradient x1="86.3892216%" y1="17.81427%" x2="-49.8862275%" y2="194.389687%" id="linearGradient-3">
            <stop stop-color="#FF3A44" offset="0%"></stop>
            <stop stop-color="#C31162" offset="100%"></stop>
        </linearGradient>
        <linearGradient x1="-18.5808383%" y1="-54.5282125%" x2="42.2754491%" y2="24.6924404%" id="linearGradient-4">
            <stop stop-color="#32A071" offset="0%"></stop>
            <stop stop-color="#2DA771" offset="6.9%"></stop>
            <stop stop-color="#15CF74" offset="47.6%"></stop>
            <stop stop-color="#06E775" offset="80.1%"></stop>
            <stop stop-color="#00F076" offset="100%"></stop>
        </linearGradient>
    </defs>
    <g id="Page-1" stroke="none" stroke-width="1" fill="none" fill-rule="evenodd">
        <g id="Expanded-Navbar" transform="translate(-110.000000, -533.000000)" fill-rule="nonzero">
            <g id="navbar" transform="translate(55.000000, 0.000000)">
                <g id="logo-and-text" transform="translate(0.000000, 31.000000)">
                    <g id="Layer_1">
                        <g id="Title" transform="translate(55.000000, 263.000000)">
                            <g id="buttons" transform="translate(0.000000, 236.000000)">
                                <g id="google-play-badge" transform="translate(0.000000, 3.000000)">
                                    <path d="M179.111111,55 L6.88888889,55 C3.03111111,55 0,51.975 0,48.125 L0,6.875 C0,3.025 3.03111111,0 6.88888889,0 L179.111111,0 C182.968889,0 186,3.025 186,6.875 L186,48.125 C186,51.975 182.968889,55 179.111111,55 Z" id="Shape" fill="#FFFFFF"></path>
                                    <path d="M179.111111,1.1 C182.28,1.1 184.897778,3.7125 184.897778,6.875 L184.897778,48.125 C184.897778,51.2875 182.28,53.9 179.111111,53.9 L6.88888889,53.9 C3.72,53.9 1.10222222,51.2875 1.10222222,48.125 L1.10222222,6.875 C1.10222222,3.7125 3.72,1.1 6.88888889,1.1 L179.111111,1.1 Z M179.111111,0 L6.88888889,0 C3.03111111,0 0,3.1625 0,6.875 L0,48.125 C0,51.975 3.03111111,55 6.88888889,55 L179.111111,55 C182.968889,55 186,51.975 186,48.125 L186,6.875 C186,3.1625 182.968889,0 179.111111,0 Z" id="Shape"></path>
                                    <path d="M65.1958763,13.7903226 C65.1958763,14.9516129 64.9226804,15.9677419 64.2396907,16.6935484 C63.4201031,17.5645161 62.4639175,18 61.2345361,18 C60.0051546,18 59.0489691,17.5645161 58.2293814,16.6935484 C57.4097938,15.8225806 57,14.8064516 57,13.5 C57,12.1935484 57.4097938,11.1774194 58.2293814,10.3064516 C59.0489691,9.43548387 60.0051546,9 61.2345361,9 C61.7809278,9 62.3273196,9.14516129 62.8737113,9.43548387 C63.4201031,9.72580645 63.8298969,10.016129 64.1030928,10.4516129 L63.4201031,11.1774194 C62.8737113,10.4516129 62.1907216,10.1612903 61.2345361,10.1612903 C60.4149485,10.1612903 59.5953608,10.4516129 59.0489691,11.1774194 C58.3659794,11.7580645 58.0927835,12.6290323 58.0927835,13.6451613 C58.0927835,14.6612903 58.3659794,15.5322581 59.0489691,16.1129032 C59.7319588,16.6935484 60.4149485,17.1290323 61.2345361,17.1290323 C62.1907216,17.1290323 62.8737113,16.8387097 63.556701,16.1129032 C63.9664948,15.6774194 64.2396907,15.0967742 64.2396907,14.3709677 L61.2345361,14.3709677 L61.2345361,13.2096774 L65.1958763,13.2096774 L65.1958763,13.7903226 Z M71.4793814,10.1612903 L67.7912371,10.1612903 L67.7912371,12.9193548 L71.2061856,12.9193548 L71.2061856,13.9354839 L67.7912371,13.9354839 L67.7912371,16.6935484 L71.4793814,16.6935484 L71.4793814,17.8548387 L66.6984536,17.8548387 L66.6984536,9.14516129 L71.4793814,9.14516129 L71.4793814,10.1612903 Z M75.9871134,17.8548387 L74.8943299,17.8548387 L74.8943299,10.1612903 L72.5721649,10.1612903 L72.5721649,9.14516129 L78.3092784,9.14516129 L78.3092784,10.1612903 L75.9871134,10.1612903 L75.9871134,17.8548387 Z M82.2706186,17.8548387 L82.2706186,9.14516129 L83.3634021,9.14516129 L83.3634021,17.8548387 L82.2706186,17.8548387 Z M88.007732,17.8548387 L86.9149485,17.8548387 L86.9149485,10.1612903 L84.5927835,10.1612903 L84.5927835,9.14516129 L90.193299,9.14516129 L90.193299,10.1612903 L87.871134,10.1612903 L87.871134,17.8548387 L88.007732,17.8548387 Z M100.984536,16.6935484 C100.164948,17.5645161 99.2087629,18 97.9793814,18 C96.75,18 95.7938144,17.5645161 94.9742268,16.6935484 C94.1546392,15.8225806 93.7448454,14.8064516 93.7448454,13.5 C93.7448454,12.1935484 94.1546392,11.1774194 94.9742268,10.3064516 C95.7938144,9.43548387 96.75,9 97.9793814,9 C99.2087629,9 100.164948,9.43548387 100.984536,10.3064516 C101.804124,11.1774194 102.213918,12.1935484 102.213918,13.5 C102.213918,14.8064516 101.804124,15.8225806 100.984536,16.6935484 Z M95.7938144,15.9677419 C96.3402062,16.5483871 97.1597938,16.983871 97.9793814,16.983871 C98.7989691,16.983871 99.6185567,16.6935484 100.164948,15.9677419 C100.71134,15.3870968 101.121134,14.516129 101.121134,13.5 C101.121134,12.483871 100.847938,11.6129032 100.164948,11.0322581 C99.6185567,10.4516129 98.7989691,10.016129 97.9793814,10.016129 C97.1597938,10.016129 96.3402062,10.3064516 95.7938144,11.0322581 C95.2474227,11.6129032 94.8376289,12.483871 94.8376289,13.5 C94.8376289,14.516129 95.1108247,15.3870968 95.7938144,15.9677419 Z M103.716495,17.8548387 L103.716495,9.14516129 L104.945876,9.14516129 L108.907216,15.9677419 L108.907216,9.14516129 L110,9.14516129 L110,17.8548387 L108.907216,17.8548387 L104.67268,10.7419355 L104.67268,17.8548387 L103.716495,17.8548387 Z" id="Shape" stroke="#FFFFFF" stroke-width="0.2" fill="#171717"></path>
                                    <path d="M94.3404255,30.3964497 C91.0212766,30.3964497 88.393617,32.8461538 88.393617,36.2485207 C88.393617,39.5147929 91.0212766,42.1005917 94.3404255,42.1005917 C97.6595745,42.1005917 100.287234,39.6508876 100.287234,36.2485207 C100.287234,32.7100592 97.6595745,30.3964497 94.3404255,30.3964497 Z M94.3404255,39.6508876 C92.5425532,39.6508876 91.0212766,38.1538462 91.0212766,36.112426 C91.0212766,34.0710059 92.5425532,32.5739645 94.3404255,32.5739645 C96.1382979,32.5739645 97.6595745,33.9349112 97.6595745,36.112426 C97.6595745,38.1538462 96.1382979,39.6508876 94.3404255,39.6508876 Z M81.4787234,30.3964497 C78.1595745,30.3964497 75.5319149,32.8461538 75.5319149,36.2485207 C75.5319149,39.5147929 78.1595745,42.1005917 81.4787234,42.1005917 C84.7978723,42.1005917 87.4255319,39.6508876 87.4255319,36.2485207 C87.4255319,32.7100592 84.7978723,30.3964497 81.4787234,30.3964497 Z M81.4787234,39.6508876 C79.6808511,39.6508876 78.1595745,38.1538462 78.1595745,36.112426 C78.1595745,34.0710059 79.6808511,32.5739645 81.4787234,32.5739645 C83.2765957,32.5739645 84.7978723,33.9349112 84.7978723,36.112426 C84.7978723,38.1538462 83.2765957,39.6508876 81.4787234,39.6508876 Z M66.1276596,32.1656805 L66.1276596,34.6153846 L72.0744681,34.6153846 C71.9361702,35.9763314 71.3829787,37.0650888 70.6914894,37.7455621 C69.8617021,38.5621302 68.4787234,39.5147929 66.1276596,39.5147929 C62.393617,39.5147929 59.6276596,36.6568047 59.6276596,32.9822485 C59.6276596,29.3076923 62.5319149,26.4497041 66.1276596,26.4497041 C68.0638298,26.4497041 69.5851064,27.2662722 70.6914894,28.2189349 L72.4893617,26.4497041 C70.9680851,25.0887574 69.0319149,24 66.2659574,24 C61.287234,24 57,28.0828402 57,32.9822485 C57,37.8816568 61.287234,41.964497 66.2659574,41.964497 C69.0319149,41.964497 70.9680851,41.147929 72.6276596,39.3786982 C74.287234,37.7455621 74.8404255,35.4319527 74.8404255,33.6627219 C74.8404255,33.1183432 74.8404255,32.5739645 74.7021277,32.1656805 L66.1276596,32.1656805 Z M128.914894,34.0710059 C128.361702,32.7100592 126.978723,30.3964497 123.93617,30.3964497 C120.893617,30.3964497 118.404255,32.7100592 118.404255,36.2485207 C118.404255,39.5147929 120.893617,42.1005917 124.212766,42.1005917 C126.840426,42.1005917 128.5,40.4674556 129.053191,39.5147929 L127.117021,38.1538462 C126.425532,39.1065089 125.595745,39.7869822 124.212766,39.7869822 C122.829787,39.7869822 122,39.2426036 121.308511,38.0177515 L129.191489,34.7514793 L128.914894,34.0710059 Z M120.893617,35.9763314 C120.893617,33.7988166 122.691489,32.5739645 123.93617,32.5739645 C124.904255,32.5739645 125.87234,33.1183432 126.148936,33.7988166 L120.893617,35.9763314 Z M114.393617,41.556213 L117.021277,41.556213 L117.021277,24.5443787 L114.393617,24.5443787 L114.393617,41.556213 Z M110.244681,31.6213018 C109.553191,30.9408284 108.446809,30.260355 107.06383,30.260355 C104.159574,30.260355 101.393617,32.8461538 101.393617,36.112426 C101.393617,39.3786982 104.021277,41.8284024 107.06383,41.8284024 C108.446809,41.8284024 109.553191,41.147929 110.106383,40.4674556 L110.244681,40.4674556 L110.244681,41.2840237 C110.244681,43.4615385 109,44.6863905 107.06383,44.6863905 C105.542553,44.6863905 104.43617,43.5976331 104.159574,42.6449704 L101.946809,43.5976331 C102.638298,45.0946746 104.297872,47 107.202128,47 C110.244681,47 112.734043,45.2307692 112.734043,41.0118343 L112.734043,30.6686391 L110.244681,30.6686391 L110.244681,31.6213018 Z M107.202128,39.6508876 C105.404255,39.6508876 103.882979,38.1538462 103.882979,36.112426 C103.882979,34.0710059 105.404255,32.5739645 107.202128,32.5739645 C109,32.5739645 110.382979,34.0710059 110.382979,36.112426 C110.382979,38.1538462 109,39.6508876 107.202128,39.6508876 Z M140.946809,24.5443787 L134.723404,24.5443787 L134.723404,41.556213 L137.351064,41.556213 L137.351064,35.1597633 L140.946809,35.1597633 C143.851064,35.1597633 146.617021,33.1183432 146.617021,29.852071 C146.617021,26.5857988 143.851064,24.5443787 140.946809,24.5443787 Z M141.085106,32.7100592 L137.351064,32.7100592 L137.351064,26.8579882 L141.085106,26.8579882 C143.021277,26.8579882 144.12766,28.4911243 144.12766,29.7159763 C143.989362,31.2130178 142.882979,32.7100592 141.085106,32.7100592 Z M156.989362,30.260355 C155.053191,30.260355 153.117021,31.0769231 152.425532,32.8461538 L154.776596,33.7988166 C155.329787,32.8461538 156.159574,32.5739645 157.12766,32.5739645 C158.510638,32.5739645 159.755319,33.3905325 159.893617,34.7514793 L159.893617,34.887574 C159.478723,34.6153846 158.37234,34.2071006 157.265957,34.2071006 C154.776596,34.2071006 152.287234,35.5680473 152.287234,38.0177515 C152.287234,40.3313609 154.361702,41.8284024 156.574468,41.8284024 C158.37234,41.8284024 159.202128,41.0118343 159.893617,40.1952663 L160.031915,40.1952663 L160.031915,41.556213 L162.521277,41.556213 L162.521277,35.0236686 C162.244681,32.0295858 159.893617,30.260355 156.989362,30.260355 Z M156.712766,39.6508876 C155.882979,39.6508876 154.638298,39.2426036 154.638298,38.1538462 C154.638298,36.7928994 156.159574,36.3846154 157.404255,36.3846154 C158.510638,36.3846154 159.06383,36.6568047 159.755319,36.9289941 C159.478723,38.5621302 158.095745,39.6508876 156.712766,39.6508876 Z M171.234043,30.6686391 L168.329787,38.0177515 L168.191489,38.0177515 L165.148936,30.6686391 L162.382979,30.6686391 L166.946809,41.0118343 L164.319149,46.7278107 L166.946809,46.7278107 L174,30.6686391 L171.234043,30.6686391 Z M148,41.556213 L150.62766,41.556213 L150.62766,24.5443787 L148,24.5443787 L148,41.556213 Z" id="Shape" fill="#717171"></path>
                                    <g id="Group" transform="translate(14.000000, 10.000000)">
                                        <path d="M0.55,0.692307692 C0.1375,1.10769231 0,1.8 0,2.63076923 L0,33.2307692 C0,34.0615385 0.275,34.7538462 0.6875,35.1692308 L0.825,35.3076923 L17.875,18.1384615 L17.875,17.8615385 L0.55,0.692307692 Z" id="Shape" fill="url(#linearGradient-1)"></path>
                                        <path d="M23.375,23.9538462 L17.7375,18.2769231 L17.7375,17.8615385 L23.375,12.1846154 L23.5125,12.3230769 L30.25,16.2 C32.175,17.3076923 32.175,19.1076923 30.25,20.2153846 L23.375,23.9538462 Z" id="Shape" fill="url(#linearGradient-2)"></path>
                                        <path d="M23.5125,23.8153846 L17.7375,18 L0.55,35.3076923 C1.2375,36 2.2,36 3.4375,35.4461538 L23.5125,23.8153846" id="Shape" fill="url(#linearGradient-3)"></path>
                                        <path d="M23.5125,12.1846154 L3.4375,0.692307692 C2.2,8.32667268e-17 1.2375,0.138461538 0.55,0.830769231 L17.7375,18 L23.5125,12.1846154 Z" id="Shape" fill="url(#linearGradient-4)"></path>
                                        <path d="M23.375,23.6769231 L3.4375,35.0307692 C2.3375,35.7230769 1.375,35.5846154 0.6875,35.0307692 L0.55,35.1692308 L0.6875,35.3076923 C1.375,35.8615385 2.3375,36 3.4375,35.3076923 L23.375,23.6769231 Z" id="Shape" fill="#000000" opacity="0.2"></path>
                                        <path d="M0.55,35.0307692 C0.1375,34.6153846 0,33.9230769 0,33.0923077 L0,33.2307692 C0,34.0615385 0.275,34.7538462 0.6875,35.1692308 L0.6875,35.0307692 L0.55,35.0307692 Z M30.25,19.8 L23.375,23.6769231 L23.5125,23.8153846 L30.25,19.9384615 C31.2125,19.3846154 31.625,18.6923077 31.625,18 C31.625,18.6923077 31.075,19.2461538 30.25,19.8 Z" id="Shape" fill="#000000" opacity="0.12"></path>
                                        <path d="M3.4375,0.830769231 L30.25,16.2 C31.075,16.7538462 31.625,17.3076923 31.625,18 C31.625,17.3076923 31.2125,16.6153846 30.25,16.0615385 L3.4375,0.692307692 C1.5125,-0.415384615 0,0.415384615 0,2.63076923 L0,2.76923077 C0,0.692307692 1.5125,-0.276923077 3.4375,0.830769231 Z" id="Shape" fill="#FFFFFF" opacity="0.25"></path>
                                    </g>
                                </g>
                            </g>
                        </g>
                    </g>
                </g>
            </g>
        </g>
    </g>
</svg>