<?xml version="1.0" encoding="UTF-8"?>
<svg width="111px" height="46px" viewBox="0 0 111 46" version="1.1" xmlns="http://www.w3.org/2000/svg" xmlns:xlink="http://www.w3.org/1999/xlink">
    <!-- Generator: Sketch 51 (57462) - http://www.bohemiancoding.com/sketch -->
    <title>logo</title>
    <desc>Created with Sketch.</desc>
    <defs></defs>
    <g id="Page-1" stroke="none" stroke-width="1" fill="none" fill-rule="evenodd">
        <g id="Hudle-landing-page" transform="translate(-56.000000, -37.000000)">
            <g id="navbar" transform="translate(56.000000, 0.000000)">
                <g id="logo-and-text" transform="translate(0.000000, 37.000000)">
                    <g id="Layer_1">
                        <g id="logo">
                            <g id="Group" transform="translate(11.676299, 11.906769)" fill="#30C6B6">
                                <polygon id="Shape" points="0 0.595338466 4.33691089 0.595338466 4.33691089 8.75998028 10.8422772 8.75998028 10.8422772 0.595338466 15.1791881 0.595338466 15.1791881 20.3265562 10.8422772 20.3265562 10.8422772 12.5871561 4.33691089 12.5871561 4.33691089 20.3265562 0 20.3265562"></polygon>
                                <polygon id="Shape" points="19.6829033 17.4349122 19.6829033 0.595338466 24.0198141 0.595338466 24.0198141 15.8189935 25.1040419 16.9246221 29.2741485 16.9246221 30.3583762 15.8189935 30.3583762 0.595338466 34.6952871 0.595338466 34.6952871 17.4349122 31.7762125 20.3265562 22.6019779 20.3265562"></polygon>
                                <path d="M39.2824044,0.595338466 L51.62592,0.595338466 L54.4615925,3.48698244 L54.4615925,17.4349122 L51.62592,20.3265562 L39.2824044,20.3265562 L39.2824044,0.595338466 Z M49.0404539,17.0096705 L50.1246816,15.9040419 L50.1246816,5.01785278 L49.0404539,3.9122242 L43.6193153,3.9122242 L43.6193153,17.0096705 L49.0404539,17.0096705 Z" id="Shape"></path>
                                <polygon id="Shape" points="58.9653076 0.595338466 63.3022185 0.595338466 63.3022185 16.8395737 70.7250083 16.8395737 70.7250083 20.3265562 58.9653076 20.3265562"></polygon>
                                <polygon id="Shape" points="74.2278979 0.595338466 87.0718263 0.595338466 87.0718263 3.99727256 78.5648088 3.99727256 78.5648088 8.67493193 86.3212071 8.67493193 86.3212071 12.076866 78.5648088 12.076866 78.5648088 17.0096705 87.0718263 17.0096705 87.0718263 20.4116045 74.2278979 20.4116045"></polygon>
                            </g>
                            <g id="Group">
                                <polyline id="Shape" fill="#FFFFFF" points="0.166804265 17.4349122 3.41948743 17.4349122 3.41948743 3.40193409 11.4260921 3.40193409 14.2617646 3.40193409 107.588751 3.40193409 107.588751 17.4349122 110.841434 17.4349122 110.841434 3.40193409 110.841434 0.0850483523 107.588751 0.0850483523 3.41948743 0.0850483523 0.166804265 0.0850483523 0.166804265 3.40193409 0.166804265 17.4349122"></polyline>
                                <polygon id="Shape" fill="#FFFFFF" points="0.166804265 41.9288377 0.166804265 45.2457234 3.41948743 45.2457234 107.588751 45.2457234 110.841434 45.2457234 110.841434 41.9288377 110.841434 27.8958595 107.588751 27.8958595 107.588751 41.9288377 14.2617646 41.9288377 11.4260921 41.9288377 3.41948743 41.9288377 3.41948743 27.8958595 0.166804265 27.8958595"></polygon>
                                <rect id="Rectangle-path" fill="#30C6B6" x="0.166804265" y="21.006943" width="3.25268316" height="3.31688574"></rect>
                                <rect id="Rectangle-path" fill="#30C6B6" x="107.588751" y="21.006943" width="3.25268316" height="3.31688574"></rect>
                            </g>
                        </g>
                    </g>
                </g>
            </g>
        </g>
    </g>
</svg>