<?xml version="1.0" encoding="UTF-8"?>
<svg width="41px" height="41px" viewBox="0 0 41 41" version="1.1" xmlns="http://www.w3.org/2000/svg" xmlns:xlink="http://www.w3.org/1999/xlink">
    <!-- Generator: Sketch 51 (57462) - http://www.bohemiancoding.com/sketch -->
    <title>instagram </title>
    <desc>Created with Sketch.</desc>
    <defs></defs>
    <g id="Page-1" stroke="none" stroke-width="1" fill="none" fill-rule="evenodd">
        <g id="Hudle-landing-page" transform="translate(-1212.000000, -3870.000000)" fill="#0B2443" fill-rule="nonzero">
            <g id="footer-section" transform="translate(0.000000, 3599.000000)">
                <g id="social-icons" transform="translate(1128.000000, 271.000000)">
                    <g id="icons">
                        <g id="instagram-" transform="translate(84.807543, 0.000000)">
                            <path d="M25.7700681,9.90455519 L13.935876,9.90455519 C12.0469705,9.90455519 10.5101888,11.455899 10.5101888,13.3627034 L10.5101888,25.3090335 C10.5101888,27.2158379 12.0469705,28.7676283 13.935876,28.7676283 L25.7700681,28.7676283 C27.6589737,28.7676283 29.1961977,27.2162844 29.1961977,25.3090335 L29.1961977,13.3627034 C29.1961977,11.455899 27.659416,9.90455519 25.7700681,9.90455519 Z M19.8529721,25.5457095 C16.4613471,25.5457095 13.7018641,22.7600782 13.7018641,19.3358685 C13.7018641,15.9121053 16.4613471,13.126474 19.8529721,13.126474 C23.2450394,13.126474 26.0045225,15.9121053 26.0045225,19.3358685 C26.0045225,22.7596317 23.244597,25.5457095 19.8529721,25.5457095 Z M26.2022603,14.4103294 C25.3993649,14.4103294 24.7464318,13.7512092 24.7464318,12.9411523 C24.7464318,12.1310953 25.3993649,11.4719751 26.2022603,11.4719751 C27.0047134,11.4719751 27.6576466,12.1310953 27.6576466,12.9411523 C27.6576466,13.7512092 27.0047134,14.4103294 26.2022603,14.4103294 Z" id="Shape"></path>
                            <path d="M19.8529721,15.7504511 C17.8950574,15.7504511 16.300768,17.3589545 16.300768,19.3354219 C16.300768,21.3127825 17.8950574,22.9217324 19.8529721,22.9217324 C21.8117715,22.9217324 23.4047338,21.3127825 23.4047338,19.3354219 C23.4047338,17.359401 21.8113292,15.7504511 19.8529721,15.7504511 Z" id="Shape"></path>
                            <path d="M19.8529721,0 C8.8889151,0 0,8.97314437 0,20.0410942 C0,31.1090439 8.8889151,40.0821883 19.8529721,40.0821883 C30.8170291,40.0821883 39.7059442,31.1090439 39.7059442,20.0410942 C39.7059442,8.97314437 30.8170291,0 19.8529721,0 Z M31.7951017,26.0682928 C31.7951017,29.4223929 29.0926839,32.1504181 25.7700681,32.1504181 L13.935876,32.1504181 C10.6137026,32.1504181 7.91084248,29.4223929 7.91084248,26.0682928 L7.91084248,14.1219626 C7.91084248,10.7683091 10.6137026,8.03983732 13.935876,8.03983732 L25.7700681,8.03983732 C29.0926839,8.03983732 31.7951017,10.7683091 31.7951017,14.1219626 L31.7951017,26.0682928 Z" id="Shape"></path>
                        </g>
                    </g>
                </g>
            </g>
        </g>
    </g>
</svg>